<svg xmlns="http://www.w3.org/2000/svg" width="235" height="49" viewBox="0 0 235 49">
<defs>
    <style>
      .cls-1 {
        fill: #fcbe31;
        fill-rule: evenodd;
      }
    </style>
  </defs>
  <path id="smsburner" data-name="SMS Burner" class="cls-1" d="M12.755,24.42a23.677,23.677,0,0,1-3.8-2.288,2.345,2.345,0,0,1-1.04-2.262,3.985,3.985,0,0,1,.546-2.392,4.36,4.36,0,0,1,1.43-1.17,3.533,3.533,0,0,1,1.638-.468q0.753,0,2.574,2.054a13.14,13.14,0,0,1,2.652,4.5l5.772-4a13.05,13.05,0,0,0-4.68-6.578Q14.159,8.82,11.3,8.82q-1.613,0-4.992,2.678a23.466,23.466,0,0,0-4.42,4.186,8.633,8.633,0,0,0-1.144,4.5,10.585,10.585,0,0,0,.7,4.186,8.489,8.489,0,0,0,3.25,3.3,47.923,47.923,0,0,0,5.538,3.146,21.537,21.537,0,0,1,4.03,2.34q0.831,0.417.832,2.184a4.1,4.1,0,0,1-.676,2.6,5.384,5.384,0,0,1-1.326,1.014,3.252,3.252,0,0,1-1.612.494q-0.755,0-2.574-2.028a12.837,12.837,0,0,1-2.652-4.472L0.483,36.9a13.036,13.036,0,0,0,4.68,6.578q3.692,2.991,6.552,2.99,1.611,0,4.992-2.678a23.467,23.467,0,0,0,4.42-4.186A9.061,9.061,0,0,0,22.271,34.9,8.041,8.041,0,0,0,21.7,31.18q-1.353-2.6-8.944-6.76h0ZM44.139,45.844V18.336a5.2,5.2,0,0,0-.052-0.884q1.4-1.716,2.054-1.716a2.43,2.43,0,0,1,1.508.78,7.827,7.827,0,0,1,1.222,1.326,2.756,2.756,0,0,1,.364,1.534V45.844h7.176V18.336a5.036,5.036,0,0,0-.78-2.938,28.077,28.077,0,0,0-3.926-3.848q-3.147-2.73-4.446-2.73-1.769,0-6.084,4-4.317-4-5.876-4T30,11.68A6.959,6.959,0,0,0,27.6,8.82l-6.24,4.368A15.135,15.135,0,0,1,23.885,17.4a21.887,21.887,0,0,1,.6,6.188V45.844h7.176V20.572a23.164,23.164,0,0,0-.156-2.756q1.716-2.079,2.756-2.08a2.136,2.136,0,0,1,1.248.78,6.856,6.856,0,0,1,1.118,1.378,2.98,2.98,0,0,1,.338,1.482V45.844h7.176ZM69.555,24.42a23.675,23.675,0,0,1-3.8-2.288,2.345,2.345,0,0,1-1.04-2.262,3.985,3.985,0,0,1,.546-2.392,4.359,4.359,0,0,1,1.43-1.17,3.533,3.533,0,0,1,1.638-.468q0.753,0,2.574,2.054a13.14,13.14,0,0,1,2.652,4.5l5.772-4a13.05,13.05,0,0,0-4.68-6.578Q70.959,8.82,68.1,8.82q-1.613,0-4.992,2.678a23.464,23.464,0,0,0-4.42,4.186,8.632,8.632,0,0,0-1.144,4.5,10.585,10.585,0,0,0,.7,4.186,8.488,8.488,0,0,0,3.25,3.3,47.922,47.922,0,0,0,5.538,3.146,21.537,21.537,0,0,1,4.03,2.34q0.831,0.417.832,2.184a4.1,4.1,0,0,1-.676,2.6,5.384,5.384,0,0,1-1.326,1.014,3.252,3.252,0,0,1-1.612.494q-0.754,0-2.574-2.028a12.837,12.837,0,0,1-2.652-4.472L57.283,36.9a13.036,13.036,0,0,0,4.68,6.578q3.692,2.991,6.552,2.99,1.611,0,4.992-2.678a23.467,23.467,0,0,0,4.42-4.186A9.061,9.061,0,0,0,79.071,34.9,8.041,8.041,0,0,0,78.5,31.18q-1.353-2.6-8.944-6.76h0ZM95.427,8.82L88.563,13.6a14.2,14.2,0,0,1,2.522,4.056,20.259,20.259,0,0,1,.6,5.928V45.844h10.764q2.079,0,5.668-3.146t4.524-5.174a6.41,6.41,0,0,0,.572-3.354,7.4,7.4,0,0,0-.572-3.51,28.834,28.834,0,0,0-4.628-4.524,17.892,17.892,0,0,0,2.86-3.25,7.451,7.451,0,0,0,.78-3.822,6.585,6.585,0,0,0-.78-3.666,28.077,28.077,0,0,0-3.926-3.848q-3.147-2.73-4.576-2.73T97.4,11.68a7.039,7.039,0,0,0-1.976-2.86h0Zm7.956,21.216q2.6,1.56,2.6,3.276a7.989,7.989,0,0,1-.442,3.3,9.962,9.962,0,0,1-1.43,1.872,2.657,2.657,0,0,1-1.664,1.066H98.859V30.036h4.524ZM98.7,16.412a9.254,9.254,0,0,1,2.756-.676,2.757,2.757,0,0,1,1.924,1.378,4.284,4.284,0,0,1,1.04,2.47,5.038,5.038,0,0,1-.312,1.872,6.912,6.912,0,0,1-1.17,1.794,2.288,2.288,0,0,1-1.43,1.014H98.859V20.572q0-2.131-.156-4.16h0Zm32.732-6.968V30.712a18.458,18.458,0,0,1-.416,5.226,7.179,7.179,0,0,1-1.43,2.028,1.956,1.956,0,0,1-3.484,0,7.158,7.158,0,0,1-1.43-2.028,18.418,18.418,0,0,1-.416-5.226V20.572a21.166,21.166,0,0,0-1.2-7.514A8.543,8.543,0,0,0,120.2,8.82l-6.24,4.368a14.207,14.207,0,0,1,2.522,4.056,20.263,20.263,0,0,1,.6,5.928v7.54q0,5.46.572,6.812,0.883,2.133,4.6,5.538t5.59,3.406q1.872,0,5.59-3.406t4.6-5.538q0.572-1.352.572-6.812V9.444h-7.176ZM145.6,8.82l-6.24,4.368a15.423,15.423,0,0,1,2.522,4.03,19.411,19.411,0,0,1,.6,5.85V45.844h7.176V30.66h4.628a8.053,8.053,0,0,1,1.17,1.82,25.228,25.228,0,0,1,.91,6.032q0.416,4.992.416,7.332h7.8q0-2.6-.468-8.138a37.307,37.307,0,0,0-.884-6.63,19.621,19.621,0,0,0-3.952-4.628,24.856,24.856,0,0,0,3.38-3.9q0.572-.675.572-4.212a5.036,5.036,0,0,0-.78-2.938,28.077,28.077,0,0,0-3.926-3.848q-3.147-2.73-4.654-2.73T148.2,11.68a7.65,7.65,0,0,0-2.6-2.86h0Zm3.9,7.592a12.206,12.206,0,0,1,3.536-.676,1.684,1.684,0,0,1,1.04.884,11.5,11.5,0,0,1,.962,1.586,3.616,3.616,0,0,1,.338,1.586,4.329,4.329,0,0,1-.338,1.69,6.764,6.764,0,0,1-1.482,1.95,3.125,3.125,0,0,1-1.872,1.144h-2.028v-4q0-2.131-.156-4.16h0Zm27.116,0.13a3.115,3.115,0,0,1,1.742-.806,2.2,2.2,0,0,1,1.508.884,8.841,8.841,0,0,1,1.2,1.586,2.557,2.557,0,0,1,.39,1.17V45.844h7.228V18.336a5.036,5.036,0,0,0-.78-2.938,28.077,28.077,0,0,0-3.926-3.848q-3.147-2.73-4.6-2.73t-5.564,3.38A9.175,9.175,0,0,0,171,8.82l-6.24,4.368a15.782,15.782,0,0,1,2.522,4.264,21.625,21.625,0,0,1,.6,6.136V45.844h7.176V20.572l-0.052-2.236A6.242,6.242,0,0,1,176.619,16.542Zm21.8-.026,1.924-1.352h9.672V8.82h-11.6l-7.176,4.992V45.844h19.6V39.552H198.419V29.984h9.308V23.692h-9.308V16.516ZM216.8,8.82l-6.24,4.368a15.423,15.423,0,0,1,2.522,4.03,19.411,19.411,0,0,1,.6,5.85V45.844h7.176V30.66h4.628a8.053,8.053,0,0,1,1.17,1.82,25.228,25.228,0,0,1,.91,6.032q0.415,4.992.416,7.332h7.8q0-2.6-.468-8.138a37.307,37.307,0,0,0-.884-6.63,19.621,19.621,0,0,0-3.952-4.628,24.856,24.856,0,0,0,3.38-3.9q0.571-.675.572-4.212a5.036,5.036,0,0,0-.78-2.938,28.077,28.077,0,0,0-3.926-3.848q-3.147-2.73-4.654-2.73T219.4,11.68a7.65,7.65,0,0,0-2.6-2.86h0Zm3.9,7.592a12.206,12.206,0,0,1,3.536-.676,1.684,1.684,0,0,1,1.04.884,11.5,11.5,0,0,1,.962,1.586,3.616,3.616,0,0,1,.338,1.586,4.329,4.329,0,0,1-.338,1.69,6.764,6.764,0,0,1-1.482,1.95,3.125,3.125,0,0,1-1.872,1.144h-2.028v-4q0-2.131-.156-4.16h0Z"/>
</svg>
